PathFileType	4	(X/Y/Z)	P:\Projects\LMB_grand_challenge_database\project_only\opensim\experimental_data\SixthCompetition/DM_ngait_og4_new.trc
DataRate	CameraRate	NumFrames	NumMarkers	Units	OrigDataRate	OrigDataStartFrame	OrigNumFrames
120	120	8	68	mm	120	280	374
Frame#	Time	Sternum			Neck			R_Shoulder			L_Shoulder			Xiphoid			Thoracic			R_Asis			L_Asis			R_Psis			L_Psis			Lumbar			R_Elbow			R_ElbowMedial			R_ShoulderAnterior			R_ShoulderPosterior			R_Wrist			R_Radius			R_Ulna			L_Elbow			L_ElbowMedial			L_ShoulderAnterior			L_ShoulderPosterior			L_Wrist			L_Ulna			L_Radius			L_Thigh_Superior			L_Thigh_Inferior			L_Thigh_Lateral			L_Knee_Lateral			L_Knee_Medial			L_Patella			L_Shank_Superior			L_Shank_Inferior			L_Shank_Lateral			L_Ankle_Lateral			L_Ankle_Medial			R_Thigh_Superior			R_Thigh_Inferior			R_Thigh_Lateral			R_Knee_Lateral			R_Knee_Medial			R_Patella			R_Shank_Superior			R_Shank_Inferior			R_Shank_Lateral			R_Ankle_Lateral			RankleMedial			R_Heel			R_Toe			R_Midfoot_Medial			R_Midfoot_Lateral			R_Hindfoot			R_Midfoot_Superior			R_ToeMedial			R_ToeLateral			L_Heel			L_Toe			L_Midfoot_Medial			L_Midfoot_Lateral			L_Hindfoot			L_Midfoot_Superior			L_ToeMedial			L_ToeLateral			Oglobal			Sacral			Xglobal			Yglobal			Zglobal			
		X1	Y1	Z1	X2	Y2	Z2	X3	Y3	Z3	X4	Y4	Z4	X5	Y5	Z5	X6	Y6	Z6	X7	Y7	Z7	X8	Y8	Z8	X9	Y9	Z9	X10	Y10	Z10	X11	Y11	Z11	X12	Y12	Z12	X13	Y13	Z13	X14	Y14	Z14	X15	Y15	Z15	X16	Y16	Z16	X17	Y17	Z17	X18	Y18	Z18	X19	Y19	Z19	X20	Y20	Z20	X21	Y21	Z21	X22	Y22	Z22	X23	Y23	Z23	X24	Y24	Z24	X25	Y25	Z25	X26	Y26	Z26	X27	Y27	Z27	X28	Y28	Z28	X29	Y29	Z29	X30	Y30	Z30	X31	Y31	Z31	X32	Y32	Z32	X33	Y33	Z33	X34	Y34	Z34	X35	Y35	Z35	X36	Y36	Z36	X37	Y37	Z37	X38	Y38	Z38	X39	Y39	Z39	X40	Y40	Z40	X41	Y41	Z41	X42	Y42	Z42	X43	Y43	Z43	X44	Y44	Z44	X45	Y45	Z45	X46	Y46	Z46	X47	Y47	Z47	X48	Y48	Z48	X49	Y49	Z49	X50	Y50	Z50	X51	Y51	Z51	X52	Y52	Z52	X53	Y53	Z53	X54	Y54	Z54	X55	Y55	Z55	X56	Y56	Z56	X57	Y57	Z57	X58	Y58	Z58	X59	Y59	Z59	X60	Y60	Z60	X61	Y61	Z61	X62	Y62	Z62	X63	Y63	Z63	X64	Y64	Z64	X65	Y65	Z65	X66	Y66	Z66	X67	Y67	Z67	X68	Y68	Z68	

281	4.558333	1048.24	1378.05	97.3683	882.9299999999999	1449.75	114.2	994.633	1390.25	276.123	945.599	1428.35	-65.7055	1074.99	1212.55	90.1951	798.0119999999999	1256.92	109.069	1009.84	985.424	233.859	998.173	973.199	-37.9586	799.3339999999999	1009.9	139.656	794.616	1005.01	60.5002	797.99	1056.78	97.4393	972	1078.12	381.803	-0	0	0	-0	0	0	-0	0	0	1039.85	802.251	365.614	1033.17	814.717	321.549	999.588	811.869	386.186	1011.18	1093.63	-149.801	-0	0	0	-0	0	0	-0	0	0	1134.04	854.76	-111.685	1095.27	858.308	-141.739	1112.86	869.617	-69.5847	950.749	792.183	-70.7304	1010.31	574.075	-56.2456	1045.79	669.845	-35.289	-0	0	0	-0	0	0	1048.72	462.497	-10.8557	932.1319999999999	449.495	-57.4779	705.803	312.573	-33.1449	845.827	343.713	20.3251	-0	0	0	-0	0	0	953.5940000000001	791.621	261.104	1004.5	583	205.513	1050.92	716.921	229.823	-0	0	0	-0	0	0	1086.62	508.97	124.394	971.4109999999999	393.833	212.77	948.71	188.507	193.936	1019.88	308.561	121.914	-0	0	0	-0	0	0	849.3869999999999	62.2443	142.901	1150.19	53.3468	136.856	1069.82	29.8253	86.5538	1061.97	30.0418	203.561	951.264	28.9838	193.716	1012.57	118.794	140.801	1114.37	40.7757	93.9879	1110.46	40.6657	185.579	577.663	305.573	32.4867	729.499	50.2347	23.3142	679.439	109.063	79.3177	654.224	110.695	-32.3411	592.875	198.296	-20.6883	712.924	196.501	12.7509	698.582	73.2563	67.65730000000001	688.364	68.8182	-26.1564	-0	0	0	796.975	1007.45	100.078	-200	0	0	-0	0	200	-0	200	0	
282	4.566667	1056.93	1379.3	96.7196	891.771	1450.97	114.897	1004.89	1391.23	275.879	952.932	1429.17	-65.9449	1083.55	1213.72	89.4986	807.0410000000001	1257.88	109.879	1019.16	985.967	233.394	1006.61	974.335	-37.9496	808.362	1011.17	140.038	803.42	1006.47	61.1614	807.061	1058.15	98.0247	985.4589999999999	1078.79	381.412	-0	0	0	-0	0	0	-0	0	0	1054.57	803.607	363.922	1046.78	815.513	320.16	1014.4	812.953	385.283	1014.08	1093.66	-151.572	-0	0	0	-0	0	0	-0	0	0	1134.3	853.437	-113.64	1096.09	858.013	-144.29	1112.27	868.061	-71.95359999999999	962.136	793.5410000000001	-69.8866	1026.6	577.537	-57.5639	1060.12	673.684	-35.077	-0	0	0	-0	0	0	1066.41	466.636	-12.0017	950.399	451.695	-58.5795	725.699	312.731	-34.633	865.678	345.433	18.6795	-0	0	0	-0	0	0	960.74	791.967	261.592	1008.85	582.857	205.678	1057.17	716.496	229.727	-0	0	0	-0	0	0	1090.12	508.335	124.568	973.771	393.86	212.725	949.675	188.68	193.93	1021.69	308.301	121.838	-0	0	0	-0	0	0	849.453	62.5406	143.028	1150.23	53.2627	136.863	1069.8	29.9013	86.4627	1062.04	29.9654	203.477	951.227	29.0331	193.722	1012.7	118.869	140.879	1114.5	40.7991	94.03100000000001	1110.53	40.711	185.679	596.665	303.625	31.2657	754.317	51.8138	21.0406	702.314	108.797	76.5226	678.076	111.327	-35.3355	614.215	197.911	-22.9923	734.28	197.947	11.42	722.58	74.1348	65.8477	712.7859999999999	69.9315	-28.8147	-0	0	0	805.891	1008.82	100.6	-200	0	0	-0	0	200	-0	200	0	
283	4.575	1065.61	1380.49	96.1474	900.771	1452.15	115.444	1014.93	1392.65	275.59	960.2859999999999	1430.26	-66.16070000000001	1092.3	1215.01	88.9512	816.194	1259.21	110.775	1028.17	987.3579999999999	233.391	1014.79	975.1950000000001	-38.1134	817.1319999999999	1012.5	140.576	812.024	1007.82	61.6928	815.742	1059.48	98.4012	998.778	1079.73	380.736	-0	0	0	-0	0	0	-0	0	0	1069.18	805.085	362.179	1060.14	816.693	318.601	1029.26	814.101	384.23	1016.72	1093.93	-153.185	-0	0	0	-0	0	0	-0	0	0	1134.43	852.463	-115.907	1096.52	857.562	-147.119	1111.76	866.452	-74.7503	972.895	795.51	-69.9871	1042.66	581.096	-58.5838	1074.11	677.819	-34.809	-0	0	0	-0	0	0	1084.28	471.435	-12.8864	968.639	454.104	-60.0183	745.936	312.236	-36.2471	885.15	347.292	17.4507	-0	0	0	-0	0	0	967.8	792.251	262.631	1012.76	582.975	205.734	1063.25	716.1180000000001	229.614	-0	0	0	-0	0	0	1093.23	507.328	124.482	976.05	393.976	212.647	950.471	188.947	193.908	1023.35	308.162	121.959	-0	0	0	-0	0	0	849.552	62.8286	143.088	1150.33	53.3283	136.963	1069.85	30.0282	86.44759999999999	1062.12	30.0284	203.463	951.248	29.1792	193.737	1012.89	119.029	140.931	1114.53	40.7151	94.1078	1110.57	40.8573	185.778	616.109	300.425	29.8887	780.194	52.9155	18.8442	724.748	106.965	73.91540000000001	702.092	110.67	-38.241	637.361	195.871	-25.3286	755.509	197.971	10.6349	747.747	74.2697	63.7478	738.37	70.2621	-30.7231	-0	0	0	814.578	1010.16	101.134	-200	0	0	-0	0	200	-0	200	0	
284	4.583333	1074.36	1381.69	95.4747	909.628	1453.33	116.023	1025.24	1393.73	275.279	967.53	1431.13	-66.3554	1100.89	1216.22	88.1147	824.748	1260.31	111.847	1036.91	988.424	233.491	1022.86	976.183	-38.2561	825.718	1013.82	141.092	820.473	1009.22	62.1841	824.276	1060.84	98.8374	1012.04	1080.77	380.157	-0	0	0	-0	0	0	-0	0	0	1083.92	806.6799999999999	360.136	1073.82	818.1950000000001	316.964	1044.1	815.2569999999999	383.034	1019.09	1094.24	-154.867	-0	0	0	-0	0	0	-0	0	0	1134.47	851.5839999999999	-118.614	1096.75	857.167	-150.023	1111.66	865.3680000000001	-77.4157	983.313	797.771	-70.5613	1058.22	584.881	-59.5755	1087.71	681.9109999999999	-34.5699	-0	0	0	-0	0	0	1101.88	476.214	-13.9256	986.929	456.621	-60.9418	766.417	310.977	-37.892	903.189	349.152	17.8311	-0	0	0	-0	0	0	974.516	792.833	262.37	1017.05	583.122	205.68	1069.35	715.8390000000001	229.284	-0	0	0	-0	0	0	1096.01	506.329	124.263	978.1900000000001	394.075	212.677	951.34	189.09	193.86	1024.74	308.21	121.934	-0	0	0	-0	0	0	849.6609999999999	63.0974	143.049	1150.32	53.2208	136.966	1069.96	30.2692	86.41	1062.2	30.0928	203.424	951.292	29.2675	193.698	1013.19	119.272	141.016	1114.65	40.7807	94.164	1110.32	40.829	185.961	636.071	296.411	28.3081	806.317	53.5281	16.9908	751.405	106.282	69.7435	728.5	110.648	-42.3387	661.011	193.714	-28.0302	779.297	198.85	7.56956	774.203	72.6842	60.5796	763.934	69.6846	-32.4256	-0	0	0	823.096	1011.52	101.638	-200	0	0	-0	0	200	-0	200	0	
285	4.591667	1083.23	1382.82	94.7456	918.576	1454.29	116.609	1035.46	1395	274.739	974.806	1432	-66.55719999999999	1109.52	1217.25	87.2086	833.67	1261.51	112.863	1045.84	988.643	233.172	1030.52	977.393	-38.7278	834.355	1015.29	141.797	828.686	1010.71	62.7403	832.877	1062.33	99.6392	1025.17	1081.75	379.395	-0	0	0	-0	0	0	-0	0	0	1098.37	808.538	358.383	1087.56	819.516	315.091	1059.03	816.524	381.629	1021.11	1094.51	-156.367	-0	0	0	-0	0	0	-0	0	0	1134.13	850.609	-121.676	1096.54	856.91	-152.953	1111.47	864.564	-80.3967	993.312	800.386	-71.24160000000001	1073.53	588.6900000000001	-60.4168	1101.26	686.351	-34.2412	-0	0	0	-0	0	0	1119.02	481.109	-14.9471	1005.01	459.21	-62.0806	787.196	309.172	-39.6979	922.255	350.01	16.9178	-0	0	0	-0	0	0	981.539	793.913	261.737	1020.86	583.351	205.682	1074.95	715.498	228.827	-0	0	0	-0	0	0	1098.65	505.52	124.196	980.056	394.12	212.681	952.046	189.327	193.812	1026.2	308.112	121.976	-0	0	0	-0	0	0	849.704	63.328	143.149	1150.36	53.1908	137.017	1069.9	30.3799	86.1926	1062.27	29.9335	203.214	951.27	29.2203	193.617	1013.4	119.351	141.071	1114.69	40.6776	94.1996	1110.34	40.7942	186.042	656.364	291.204	26.3516	833.794	53.6956	15.2977	777.444	105.021	69.2812	754.412	107.784	-42.8259	684.003	188.86	-29.2762	802.516	197.881	6.35474	800.86	72.4541	59.6913	791.1369999999999	68.49720000000001	-34.2761	-0	0	0	831.52	1013	102.269	-200	0	0	-0	0	200	-0	200	0	
286	4.6	1091.92	1383.8	93.9246	927.556	1455.72	116.957	1045.59	1396.24	274.186	982.148	1432.78	-66.7548	1118	1218.34	86.3836	842.54	1262.66	113.79	1054.66	989.515	232.904	1037.73	978.077	-39.2273	842.723	1016.59	142.692	836.651	1012.14	63.483	841.13	1063.69	100.363	1038.4	1082.86	378.746	-0	0	0	-0	0	0	-0	0	0	1112.85	809.793	355.966	1101.12	820.873	313.07	1073.67	817.7670000000001	379.953	1022.97	1094.86	-157.862	-0	0	0	-0	0	0	-0	0	0	1133.67	849.682	-125.103	1095.83	857.343	-157.067	1111.31	863.465	-83.7748	1003.14	802.74	-72.01300000000001	1088.52	592.658	-61.2984	1114.02	691.071	-33.8132	-0	0	0	-0	0	0	1136.15	486.356	-15.99	1023.15	461.613	-63.1685	808.562	306.864	-41.3796	941.9059999999999	350.718	15.5584	-0	0	0	-0	0	0	988.317	794.582	261.463	1024.88	583.316	205.483	1080.81	715.158	228.392	-0	0	0	-0	0	0	1101.24	504.63	124.173	981.998	394.14	212.654	952.6369999999999	189.602	193.762	1028.02	307.807	121.859	-0	0	0	-0	0	0	849.725	63.5903	143.137	1150.49	53.1207	136.939	1069.85	30.3255	86.0899	1062.24	29.7402	203.112	951.352	29.2481	193.557	1013.56	119.339	141.096	1114.75	40.5636	94.2033	1110.39	40.8028	186.013	677.452	284.961	24.0331	862.396	53.0531	13.812	804.276	102.984	68.3943	781.189	104.161	-43.7295	708.106	182.913	-30.9597	826.292	196.187	4.7706	828.054	71.1176	58.1331	819.389	66.6435	-35.8069	-0	0	0	839.687	1014.36	103.087	-200	0	0	-0	0	200	-0	200	0	
287	4.608333	1100.55	1384.69	93.0177	936.712	1456.77	117.342	1056	1397.55	273.603	989.3049999999999	1433.53	-67.017	1126.52	1219.16	85.5504	851.46	1263.79	114.545	1063.37	990.359	232.705	1045.83	979.01	-39.4295	851.327	1018.03	142.927	845.121	1013.56	63.8377	849.756	1065.12	100.611	1051.66	1083.97	378.007	-0	0	0	-0	0	0	-0	0	0	1127.2	811.211	353.673	1114.76	822.169	310.936	1087.96	818.893	378.179	1024.71	1095.26	-159.349	-0	0	0	-0	0	0	-0	0	0	1133.14	849.049	-128.916	1094.87	856.625	-159.441	1111.31	862.741	-87.4254	1012.75	804.769	-72.253	1103.17	596.758	-62.0731	1126.73	695.268	-33.5343	-0	0	0	-0	0	0	1152.61	491.551	-17.1268	1041.35	464.126	-64.3716	830.03	303.959	-43.6129	962.043	351.454	14.1003	-0	0	0	-0	0	0	995.48	795.561	261.138	1029.17	583.228	205.213	1086.57	714.825	227.841	-0	0	0	-0	0	0	1104.39	503.855	124.002	983.9400000000001	394.247	212.623	953.23	189.902	193.815	1029.25	307.674	121.697	-0	0	0	-0	0	0	849.855	63.7924	143.033	1150.46	52.9359	137.257	1069.95	30.2031	86.0671	1062.3	29.6117	203.086	951.366	29.2226	193.526	1013.69	119.266	141.065	1114.82	40.499	94.2015	1110.79	40.6773	185.875	698.748	277.715	21.5	891.638	52.1883	12.2271	831.1799999999999	99.7882	65.9032	809.021	100.88	-46.4083	733.6849999999999	177.642	-33.3671	850.746	193.989	3.00095	856.033	69.4563	56.5605	848.61	64.4956	-37.6825	-0	0	0	848.224	1015.79	103.382	-200	0	0	-0	0	200	-0	200	0	
288	4.616667	1109.22	1385.56	91.9614	945.736	1457.73	117.861	1066.21	1398.84	272.957	996.399	1434.41	-67.34610000000001	1135.03	1219.98	84.688	860.413	1264.9	115.487	1072.02	991.3339999999999	232.589	1054.31	980.083	-39.4692	859.978	1019.19	142.874	853.826	1014.99	64.0951	858.436	1066.42	100.668	1064.85	1085.01	377.319	-0	0	0	-0	0	0	-0	0	0	1141.53	812.852	351.116	1128.34	823.72	308.532	1102.55	820.192	376.285	1026.27	1095.53	-160.508	-0	0	0	-0	0	0	-0	0	0	1132.42	848.202	-133.189	1093.61	856.247	-162.688	1111.69	862.173	-91.0577	1022.31	806.991	-73.62130000000001	1117.44	600.723	-62.8497	1139.08	699.535	-33.5535	-0	0	0	-0	0	0	1168.33	496.455	-18.0946	1059.08	466.418	-65.6584	851.739	300.062	-45.3251	981.947	351.953	13.0019	-0	0	0	-0	0	0	1002.95	796.816	260.063	1031.21	584.34	205.162	1092.28	714.731	227.439	-0	0	0	-0	0	0	1106.74	502.972	123.709	985.643	394.553	212.788	953.975	190.266	193.848	1030.26	307.597	121.467	-0	0	0	-0	0	0	849.708	63.9167	143.13	1151.06	53.9213	137.85	1069.71	29.8826	86.0684	1062.14	29.4843	203.094	951.3920000000001	29.3512	193.587	1013.78	119.171	140.965	1114.82	40.2872	94.09950000000001	1110.84	40.5677	185.804	720.631	269.524	18.7702	922.913	51.5535	11.3423	859.356	96.8172	64.54389999999999	837.603	96.54859999999999	-47.8523	759.502	169.916	-35.8515	875.622	191.398	1.25237	885.424	67.18519999999999	55.2576	878.665	61.8422	-39.2158	-0	0	0	856.902	1017.09	103.485	-200	0	0	-0	0	200	-0	200	0	
